<svg width="15" height="16" viewBox="0 0 15 16" fill="none" xmlns="http://www.w3.org/2000/svg">
<path fill-rule="evenodd" clip-rule="evenodd" d="M5.4621 0.328226C5.86145 0.132212 6.44092 0.00487348 7.33759 0.000173544C7.87996 -0.00230764 8.21198 0.0166967 8.5657 0.401161C8.68901 0.568564 8.77479 0.781566 8.86181 0.997623C8.89841 1.0885 8.93523 1.17991 8.97514 1.2687C9.10774 0.967936 9.22342 0.998845 9.43837 1.05628C9.62945 1.10733 9.89897 1.17935 10.3285 1.05798C10.8236 0.8989 11.4282 0.787955 11.6648 0.831423C11.9583 0.885341 12.2371 1.06486 12.4607 1.3731C12.6844 1.6813 13.9053 1.77538 13.9053 1.77538C14.674 3.84544 13.2992 5.04938 11.9761 6.20808C11.5528 6.57874 11.1348 6.94477 10.794 7.33304C10.5032 7.20159 10.2056 7.08778 9.90403 6.98996C10.2612 6.66626 10.4275 6.28706 10.414 5.90526C10.3278 6.00834 10.2532 6.11344 10.1785 6.21854C10.0149 6.44873 9.8513 6.67893 9.56733 6.88789C8.99254 6.72519 8.40645 6.61748 7.82658 6.5544L7.90698 5.52603L7.4252 6.51764C7.10727 6.49387 6.78761 6.48222 6.46789 6.48273C6.01295 6.48321 5.57113 6.50774 5.15166 6.55001C4.9454 6.17114 4.82403 5.80073 4.69088 5.39435C4.6833 5.37123 4.67569 5.348 4.66802 5.32465C4.67638 5.52881 4.66152 5.72065 4.64697 5.90849C4.62874 6.14373 4.611 6.3727 4.63997 6.61173C4.37925 6.6483 4.12087 6.69304 3.86581 6.74582C3.77752 6.66218 3.52258 6.6136 3.20754 6.55358C2.66554 6.45031 1.94567 6.31316 1.59049 5.90526C0.840629 5.0441 0.083223 3.97369 0.000839158 3.25477C-0.018469 3.08586 0.298977 2.70428 0.58561 2.35974C0.786771 2.11794 0.972756 1.89438 1.01651 1.77538C1.12264 1.48685 1.31029 1.25779 1.59054 1.13469C1.82766 1.03052 2.48725 1.05873 3.06567 1.16895C3.52597 1.25724 3.75797 1.15397 3.92685 1.07881C4.12888 0.988884 4.24055 0.939181 4.54463 1.3058C4.74937 0.88061 5.0057 0.552249 5.4621 0.328226ZM4.03071 7.15921C4.72108 7.01554 5.54815 6.91846 6.42839 6.91552C7.78244 6.91099 9.26304 7.12905 10.566 7.74148L10.5212 8.10898C10.3577 8.31359 10.1975 8.54059 10.0405 8.79C9.85227 9.09227 9.67383 9.40673 9.50514 9.73339C9.10571 9.60323 8.64183 9.49251 8.14663 9.40613C8.09648 9.13313 8.02776 8.87442 7.94047 8.63C7.8138 8.25 7.65714 7.94667 7.47047 7.72C7.29047 7.48667 7.08714 7.37 6.86047 7.37C6.64714 7.37 6.42047 7.5 6.18047 7.76C5.94047 8.01333 5.69714 8.44 5.45047 9.04C5.4276 9.09716 5.40532 9.15449 5.38362 9.212C5.19557 9.22041 5.01156 9.23417 4.83339 9.25374C4.39308 9.30207 3.98099 9.38544 3.63682 9.52024L3.97392 7.49956C4.04525 7.48358 4.11728 7.47039 4.19 7.46C4.22333 7.45333 4.25667 7.45 4.29 7.45H4.38C4.6 7.45 4.80667 7.50333 5 7.61C5.2 7.71 5.3 7.86667 5.3 8.08C5.3 8.12 5.29667 8.16 5.29 8.2C5.28333 8.24 5.27 8.28667 5.25 8.34C5.24333 8.37333 5.23333 8.40667 5.22 8.44C5.21333 8.46667 5.21 8.48667 5.21 8.5C5.21 8.52667 5.22 8.54 5.24 8.54C5.26667 8.54 5.31333 8.49 5.38 8.39C5.44667 8.29 5.48 8.17667 5.48 8.05C5.48 7.88333 5.41 7.71667 5.27 7.55C5.13 7.38333 4.88333 7.26667 4.53 7.2C4.41 7.18 4.28333 7.17 4.15 7.17C4.10902 7.17 4.06853 7.17071 4.02855 7.17212L4.03071 7.15921ZM4.02855 7.17212C3.71081 7.18337 3.42463 7.23933 3.17 7.34C2.81 7.48 2.47333 7.67667 2.16 7.93C1.85333 8.17667 1.60333 8.47333 1.41 8.82C1.21667 9.16667 1.12 9.55333 1.12 9.98V10.1C1.12 10.14 1.12333 10.18 1.13 10.22C1.16333 10.5667 1.23667 10.87 1.35 11.13C1.47 11.3833 1.60333 11.61 1.75 11.81C1.90333 12.01 2.05333 12.1933 2.2 12.36C2.34667 12.5267 2.46667 12.69 2.56 12.85C2.66 13.01 2.71 13.1833 2.71 13.37V13.4C2.21667 13.5333 1.71 13.7433 1.19 14.03C1.15 13.9833 1.12 13.96 1.1 13.96C1.06667 13.96 1.05 13.9867 1.05 14.04C1.05 14.0733 1.05333 14.0967 1.06 14.11C1.00667 14.1367 0.953333 14.1667 0.9 14.2C0.84 14.24 0.783333 14.2767 0.73 14.31C0.676667 14.35 0.633333 14.4033 0.6 14.47C0.566667 14.5367 0.55 14.5933 0.55 14.64C0.55 14.6933 0.566667 14.72 0.6 14.72C0.62 14.72 0.643333 14.71 0.67 14.69C0.756667 14.63 0.846667 14.57 0.94 14.51C1.02667 14.45 1.11333 14.3967 1.2 14.35C1.24667 14.3967 1.29667 14.4333 1.35 14.46C1.50333 14.5533 1.69333 14.6 1.92 14.6C2.15333 14.6 2.38333 14.5367 2.61 14.41C2.83667 14.2833 2.99333 14.0867 3.08 13.82C3.1 13.7467 3.11 13.6767 3.11 13.61V13.56C3.11 13.54 3.10667 13.52 3.1 13.5C3.22667 13.4667 3.34667 13.4467 3.46 13.44C3.57333 13.4267 3.67667 13.42 3.77 13.42C3.90333 13.42 3.97 13.4 3.97 13.36C3.97 13.32 3.92333 13.2933 3.83 13.28C3.71 13.2733 3.58667 13.2733 3.46 13.28C3.33333 13.2867 3.20333 13.3033 3.07 13.33C3.01 13.13 2.89667 12.93 2.73 12.73C2.56333 12.5233 2.38667 12.31 2.2 12.09C2.02 11.87 1.86333 11.6333 1.73 11.38C1.59667 11.12 1.53 10.8333 1.53 10.52V10.39L1.55 10.25C1.63 9.73667 1.79667 9.28333 2.05 8.89C2.31 8.49 2.62667 8.16667 3 7.92C3.30869 7.71604 3.63333 7.5759 3.97392 7.49956L4.02855 7.17212ZM5.62711 9.20411C5.5453 9.20579 5.46409 9.2084 5.38362 9.212C5.32874 9.3574 5.27758 9.5039 5.23012 9.65152C5.12654 9.65845 5.02544 9.66726 4.92737 9.67803C4.54824 9.71967 4.2211 9.79116 3.96441 9.88759C3.89522 9.82542 3.82057 9.78289 3.74047 9.76C3.7138 9.74667 3.6638 9.74333 3.59047 9.75C3.5238 9.75667 3.49047 9.77667 3.49047 9.81C3.49047 9.82333 3.49714 9.83667 3.51047 9.85C3.57185 9.88069 3.63179 9.93589 3.69029 10.0156C3.68279 10.02 3.6754 10.0244 3.66812 10.0289C3.68675 10.041 3.70547 10.053 3.72428 10.0649C3.74316 10.094 3.76189 10.1257 3.78047 10.16C3.86714 10.3133 3.94714 10.5 4.02047 10.72C4.10047 10.9333 4.17047 11.1533 4.23047 11.38C4.29047 11.6 4.34047 11.8033 4.38047 11.99C4.42714 12.1767 4.45714 12.3167 4.47047 12.41C4.49047 12.5367 4.51714 12.6933 4.55047 12.88C4.5838 13.06 4.62714 13.21 4.68047 13.33C4.72714 13.45 4.77714 13.51 4.83047 13.51C4.8838 13.51 4.93047 13.45 4.97047 13.33C5.01047 13.21 5.03047 13.0733 5.03047 12.92V12.82C5.03047 12.78 5.02714 12.7433 5.02047 12.71C5.0138 12.65 5.00714 12.5867 5.00047 12.52V12.3C5.00047 11.9867 5.03047 11.63 5.09047 11.23C5.11902 11.0587 5.15186 10.8867 5.18898 10.7142C6.02767 10.9577 6.95102 11.0431 7.89261 10.9799C7.90419 11.1184 7.91348 11.2584 7.92047 11.4C7.94714 11.9333 7.9638 12.4667 7.97047 13C7.97047 13.1267 7.99047 13.2233 8.03047 13.29C8.07047 13.3567 8.11714 13.39 8.17047 13.39C8.23047 13.39 8.29047 13.3467 8.35047 13.26C8.41714 13.1733 8.4638 13.0433 8.49047 12.87C8.57047 12.3967 8.71047 11.9133 8.91047 11.42C8.99679 11.2112 9.08775 11.0052 9.18337 10.8022C9.49703 10.737 9.80937 10.6559 10.1179 10.5592C10.0053 10.4546 9.79302 10.3255 9.48231 10.2054C9.52429 10.1265 9.567 10.048 9.61047 9.97C9.64207 9.91328 9.67367 9.85731 9.70527 9.80207C9.91941 9.87919 10.1164 9.96217 10.2838 10.0544L10.458 8.62633C10.6978 8.29727 10.9153 8.03516 11.1105 7.84C11.3238 7.62 11.4838 7.51 11.5905 7.51C11.6638 7.51 11.7005 7.57 11.7005 7.69C11.7005 7.72333 11.6971 7.76667 11.6905 7.82C11.6838 7.86667 11.6738 7.92 11.6605 7.98C11.6005 8.20667 11.4971 8.51 11.3505 8.89C11.2038 9.27 11.0371 9.69667 10.8505 10.17C10.6705 10.6367 10.4938 11.1233 10.3205 11.63C10.1538 12.1367 10.0138 12.6333 9.90047 13.12C9.78714 13.6067 9.73047 14.05 9.73047 14.45C9.73047 14.6567 9.76047 14.8733 9.82047 15.1C9.88047 15.3267 9.9738 15.5167 10.1005 15.67C10.2271 15.83 10.3838 15.91 10.5705 15.91C10.7571 15.91 10.9671 15.8133 11.2005 15.62C11.2138 15.6067 11.2405 15.5667 11.2805 15.5C11.3205 15.44 11.3471 15.38 11.3605 15.32C11.3738 15.2667 11.3505 15.25 11.2905 15.27C11.2971 15.2833 11.2738 15.32 11.2205 15.38C11.1671 15.4467 11.0971 15.5067 11.0105 15.56C10.9238 15.62 10.8305 15.65 10.7305 15.65C10.6371 15.65 10.5438 15.6067 10.4505 15.52C10.3638 15.44 10.2905 15.2933 10.2305 15.08C10.1905 14.94 10.1605 14.7933 10.1405 14.64C10.1271 14.4867 10.1205 14.33 10.1205 14.17C10.1205 13.67 10.1905 13.15 10.3305 12.61C10.4771 12.07 10.6571 11.5467 10.8705 11.04C11.0838 10.5333 11.2971 10.0867 11.5105 9.7C11.6305 9.48667 11.7605 9.26667 11.9005 9.04C12.0405 8.81333 12.1605 8.58333 12.2605 8.35C12.3605 8.11 12.4105 7.87 12.4105 7.63C12.4105 7.47 12.3605 7.35 12.2605 7.27C12.1605 7.18333 12.0371 7.14 11.8905 7.14C11.7638 7.14 11.6271 7.17667 11.4805 7.25C11.2338 7.37667 10.9871 7.57667 10.7405 7.85C10.6667 7.93192 10.5936 8.01825 10.5212 8.10898L10.458 8.62633C10.4357 8.65697 10.4132 8.6882 10.3905 8.72C10.1621 9.0421 9.93367 9.40279 9.70527 9.80207C9.67575 9.79144 9.64591 9.78092 9.61578 9.77051C9.57948 9.75797 9.54259 9.74559 9.50514 9.73339C9.47664 9.78857 9.44841 9.84411 9.42047 9.9C9.38013 9.98067 9.34068 10.0609 9.30208 10.1407C8.99089 10.0362 8.61753 9.94126 8.21194 9.86262C8.21145 9.85841 8.21096 9.8542 8.21047 9.85C8.19436 9.69807 8.17307 9.55011 8.14663 9.40613C7.97859 9.37682 7.80695 9.35032 7.633 9.3268C7.52015 8.83651 7.39598 8.47091 7.26047 8.23C7.08714 7.91 6.90714 7.75 6.72047 7.75C6.54714 7.75 6.37714 7.85667 6.21047 8.07C6.05047 8.27667 5.89714 8.55333 5.75047 8.9C5.70795 8.99857 5.66683 9.09994 5.62711 9.20411ZM5.62711 9.20411C5.71607 9.2023 5.80574 9.2016 5.89593 9.20196C5.94833 9.2022 6.00095 9.20278 6.05374 9.20371C6.47573 9.21117 6.90724 9.24117 7.33014 9.28917C7.43169 9.30069 7.53273 9.31325 7.633 9.3268C7.66532 9.46725 7.69672 9.61794 7.72718 9.77885C7.56491 9.7541 7.39966 9.73209 7.23307 9.71318C6.78592 9.66243 6.32804 9.63394 5.89173 9.63204C5.75013 9.63144 5.61076 9.63364 5.47473 9.63879C5.523 9.48885 5.57379 9.34396 5.62711 9.20411ZM8.26756 10.947C8.14236 10.9606 8.01732 10.9716 7.89261 10.9799C7.86004 10.5906 7.80932 10.2139 7.74047 9.85C7.73606 9.82607 7.73163 9.80235 7.72718 9.77885C7.89245 9.80407 8.05462 9.83212 8.21194 9.86262C8.23775 10.0858 8.25393 10.3283 8.26047 10.59C8.26354 10.7097 8.2659 10.8287 8.26756 10.947ZM8.26756 10.947C8.50492 10.9213 8.74287 10.8863 8.98037 10.8422C8.95316 10.9051 8.92653 10.9677 8.90047 11.03C8.74714 11.39 8.61714 11.7167 8.51047 12.01C8.4038 12.2967 8.32714 12.52 8.28047 12.68C8.2738 12.62 8.27047 12.5433 8.27047 12.45V12.14V11.36C8.27047 11.2233 8.2695 11.0857 8.26756 10.947ZM8.98037 10.8422C9.04809 10.8296 9.11576 10.8163 9.18337 10.8022C9.27842 10.6004 9.37807 10.4015 9.48231 10.2054C9.43914 10.1888 9.39407 10.1723 9.34711 10.156C9.33225 10.1509 9.31724 10.1458 9.30208 10.1407C9.18712 10.3784 9.07989 10.6122 8.98037 10.8422ZM4.97045 10.6465C4.9899 10.554 5.0099 10.4619 5.03047 10.37C5.08749 10.1276 5.15404 9.88816 5.23012 9.65152C5.31025 9.64616 5.39187 9.64193 5.47473 9.63879C5.43492 9.76243 5.39684 9.8895 5.36047 10.02C5.29568 10.2525 5.23852 10.4839 5.18898 10.7142C5.11547 10.6928 5.04262 10.6703 4.97045 10.6465ZM4.97045 10.6465C4.89538 11.0034 4.82872 11.3646 4.77047 11.73L4.62047 11.23C4.56047 11.0233 4.48714 10.8167 4.40047 10.61C4.37031 10.5296 4.33777 10.4534 4.30287 10.3815C4.51737 10.4824 4.74038 10.5706 4.97045 10.6465ZM4.30287 10.3815C4.24521 10.2627 4.18107 10.1555 4.11047 10.06C4.06483 9.99155 4.01615 9.93408 3.96441 9.88759C3.86126 9.92634 3.76949 9.96912 3.69029 10.0156C3.70168 10.0311 3.71301 10.0476 3.72428 10.0649C3.9089 10.1816 4.10216 10.2871 4.30287 10.3815ZM2.4 14.23C2.21333 14.3567 2.02333 14.42 1.83 14.42C1.61667 14.42 1.45667 14.3667 1.35 14.26C1.81667 13.9867 2.27 13.7733 2.71 13.62C2.69 13.9067 2.58667 14.11 2.4 14.23Z" fill="url(#paint0_linear_104_773)"/>
<defs>
<linearGradient id="paint0_linear_104_773" x1="7.06342" y1="0" x2="7.06342" y2="15.91" gradientUnits="userSpaceOnUse">
<stop stop-color="#F9F2F2"/>
<stop offset="1" stop-color="#625227"/>
</linearGradient>
</defs>
</svg>
